<?xml version="1.0" encoding="utf-8"?>
<!-- Generator: Adobe Illustrator 21.1.0, SVG Export Plug-In . SVG Version: 6.00 Build 0)  -->
<svg version="1.1" id="Слой_1" xmlns="http://www.w3.org/2000/svg" xmlns:xlink="http://www.w3.org/1999/xlink" x="0px" y="0px"
	 viewBox="0 0 26 30" style="enable-background:new 0 0 26 30;" xml:space="preserve">
<style type="text/css">
	.st0{fill:#9C9B9B;}
	.st1{fill:#0083BD;}
	.st2{fill:#B1B1B1;}
</style>
<g>
	<path class="st0" d="M16.5,1.8c-1.1-0.4-1.9-0.8-2.5-1.2L13,0l-1.1,0.6C10.4,1.5,7.1,3,2,3.4L0.1,3.6L0,5.5
		C-0.4,16,2.2,22,5.1,25.4c2,0,3.8-0.3,5.8-0.8c-2.7-1.6-6.5-5.9-6.5-17C8.2,7,14.4,4.7,16.5,1.8z"/>
	<path class="st1" d="M25.9,5.5l-0.1-1.9l-1.9-0.2c-2.2-0.2-4-0.6-5.5-1c-1,1.3-2.1,2.6-3.6,3.4c1.8,0.7,4.1,1.4,6.8,1.8
		c0,14.8-5.4,19.2-14.6,19.7c2.4,2,4.8,2.5,5.7,2.7L13,30l0.4-0.1c1-0.2,4.5-1,7.6-4.6C24.6,21,26.3,14.3,25.9,5.5z"/>
</g>
</svg>
