<?xml version="1.0" encoding="utf-8"?>
<!-- Generator: Adobe Illustrator 21.1.0, SVG Export Plug-In . SVG Version: 6.00 Build 0)  -->
<svg version="1.1" id="Слой_1" xmlns="http://www.w3.org/2000/svg" xmlns:xlink="http://www.w3.org/1999/xlink" x="0px" y="0px"
	 viewBox="0 0 262.9 38.2" style="enable-background:new 0 0 262.9 38.2;" xml:space="preserve">
<style type="text/css">
	.st0{fill:#9C9B9B;}
	.st1{fill:#0083BD;}
	.st2{fill:#B1B1B1;}
</style>
<g>
	<g>
		<g>
			<path class="st0" d="M13.7,32.6h-4V16.3H4v16.3H0V13h13.7V32.6z"/>
			<path class="st0" d="M28.1,25.8c0,2.3-0.4,4-1.2,5.3s-2,1.8-3.5,1.8c-1.2,0-2.1-0.5-2.9-1.4v6.8h-3.8V18h3.5l0.1,1.3
				c0.7-1.1,1.7-1.6,3-1.6c1.6,0,2.7,0.6,3.5,1.7s1.2,2.9,1.2,5.2V25.8z M24.3,24.8c0-1.4-0.2-2.4-0.5-3C23.5,21.3,23,21,22.2,21
				c-0.8,0-1.3,0.3-1.7,1v6.8c0.3,0.6,0.9,0.9,1.7,0.9c0.8,0,1.3-0.3,1.6-1s0.4-1.6,0.4-3V24.8z"/>
			<path class="st0" d="M29.9,24.8c0-2.2,0.5-3.9,1.6-5.2c1-1.3,2.5-1.9,4.3-1.9c1.9,0,3.3,0.6,4.3,1.9c1,1.3,1.6,3,1.6,5.2v0.9
				c0,2.2-0.5,3.9-1.5,5.2c-1,1.2-2.5,1.9-4.3,1.9c-1.9,0-3.3-0.6-4.4-1.9c-1-1.3-1.6-3-1.6-5.2V24.8z M33.7,25.8
				c0,2.6,0.7,3.9,2.1,3.9c1.3,0,2-1.1,2.1-3.3l0-1.6c0-1.3-0.2-2.3-0.6-3c-0.4-0.6-0.9-1-1.6-1c-0.6,0-1.1,0.3-1.5,1
				c-0.4,0.6-0.5,1.6-0.5,3V25.8z"/>
			<path class="st0" d="M51.7,28l2.7-9.9h4.8v14.6h-3.8v-7.8L53,32.6h-2.5l-2.3-7.5v7.5h-3.8V18H49L51.7,28z"/>
			<path class="st0" d="M75.2,16.3h-4.8v16.3h-4V16.3h-4.8V13h13.6V16.3z"/>
			<path class="st0" d="M82,32.9c-2,0-3.5-0.6-4.6-1.7s-1.6-2.8-1.6-5V25c0-2.3,0.5-4.1,1.5-5.3c1-1.2,2.4-1.9,4.3-1.9
				c1.8,0,3.2,0.6,4.1,1.8c0.9,1.2,1.4,2.9,1.4,5.2v1.9h-7.6c0.1,1.1,0.3,1.9,0.7,2.4c0.4,0.5,1.1,0.8,2,0.8c1.3,0,2.3-0.4,3.2-1.3
				l1.5,2.3c-0.5,0.6-1.1,1.2-2,1.6C84,32.7,83,32.9,82,32.9z M79.6,23.9h3.8v-0.4c0-0.9-0.2-1.5-0.4-2s-0.7-0.7-1.4-0.7
				s-1.1,0.2-1.4,0.7C79.8,22.1,79.7,22.9,79.6,23.9z"/>
			<path class="st0" d="M94.2,22.4l1.7-4.3h4l-3.3,7.1l3.4,7.4h-4L94.2,28l-1.8,4.6h-4.1l3.4-7.4L88.5,18h4L94.2,22.4z"/>
			<path class="st1" d="M112.9,16.3h-7V20h2.3c2,0,3.6,0.6,4.7,1.7c1.2,1.1,1.8,2.6,1.8,4.5c0,1.9-0.6,3.4-1.7,4.6
				c-1.1,1.2-2.7,1.8-4.6,1.8H102V13h11V16.3z M105.9,23.3v6h2.4c0.8,0,1.4-0.3,1.8-0.9c0.4-0.6,0.7-1.3,0.7-2.2
				c0-0.9-0.2-1.5-0.7-2.1c-0.4-0.5-1-0.8-1.8-0.8H105.9z"/>
			<path class="st1" d="M122.7,32.9c-2,0-3.5-0.6-4.6-1.7s-1.6-2.8-1.6-5V25c0-2.3,0.5-4.1,1.5-5.3c1-1.2,2.4-1.9,4.3-1.9
				c1.8,0,3.2,0.6,4.1,1.8c0.9,1.2,1.4,2.9,1.4,5.2v1.9h-7.6c0.1,1.1,0.3,1.9,0.7,2.4c0.4,0.5,1.1,0.8,2,0.8c1.3,0,2.3-0.4,3.2-1.3
				l1.5,2.3c-0.5,0.6-1.1,1.2-2,1.6C124.7,32.7,123.7,32.9,122.7,32.9z M120.3,23.9h3.8v-0.4c0-0.9-0.2-1.5-0.4-2
				c-0.3-0.5-0.7-0.7-1.4-0.7c-0.7,0-1.1,0.2-1.4,0.7C120.5,22.1,120.4,22.9,120.3,23.9z"/>
			<path class="st1" d="M136.2,22.3c0-1.1-0.4-1.6-1.2-1.6c-0.4,0-0.8,0.1-1,0.4c-0.3,0.3-0.4,0.6-0.4,1.1h-3.8
				c0-1.3,0.5-2.4,1.4-3.2c0.9-0.8,2.1-1.2,3.6-1.2c1.6,0,2.9,0.4,3.8,1.1s1.4,1.8,1.4,3.1c0,0.6-0.2,1.2-0.5,1.8
				c-0.3,0.5-0.8,1-1.4,1.3c1.4,0.6,2.1,1.7,2.1,3.4c0,1.3-0.5,2.4-1.5,3.2c-1,0.8-2.3,1.2-4,1.2c-1.5,0-2.8-0.4-3.7-1.2
				c-1-0.8-1.4-1.9-1.4-3.3h3.8c0,0.5,0.1,0.9,0.4,1.2s0.7,0.4,1.2,0.4c0.5,0,0.8-0.2,1.1-0.5c0.2-0.3,0.4-0.7,0.4-1.3
				c0-1.1-0.4-1.7-1.3-1.8h-1.9v-2.5h1.8C135.8,23.9,136.2,23.4,136.2,22.3z"/>
			<path class="st1" d="M142,24.8c0-2.2,0.5-3.9,1.6-5.2c1-1.3,2.5-1.9,4.3-1.9c1.9,0,3.3,0.6,4.3,1.9c1,1.3,1.6,3,1.6,5.2v0.9
				c0,2.2-0.5,3.9-1.5,5.2c-1,1.2-2.5,1.9-4.3,1.9c-1.9,0-3.3-0.6-4.4-1.9c-1-1.3-1.6-3-1.6-5.2V24.8z M145.9,25.8
				c0,2.6,0.7,3.9,2.1,3.9c1.3,0,2-1.1,2.1-3.3l0-1.6c0-1.3-0.2-2.3-0.6-3c-0.4-0.6-0.9-1-1.6-1c-0.6,0-1.2,0.3-1.5,1
				c-0.4,0.6-0.5,1.6-0.5,3V25.8z"/>
			<path class="st1" d="M167.2,32.6h-3.8V21.2H160v11.4h-3.8V18h11V32.6z"/>
			<path class="st1" d="M176.9,32.6c-0.1-0.2-0.2-0.6-0.3-1.1c-0.7,0.9-1.6,1.4-2.8,1.4c-1.2,0-2.2-0.4-3-1.2
				c-0.8-0.8-1.2-1.9-1.2-3.1c0-1.5,0.5-2.7,1.5-3.5c1-0.8,2.4-1.3,4.2-1.3h1.2v-1.2c0-0.7-0.1-1.1-0.3-1.4c-0.2-0.3-0.6-0.4-1-0.4
				c-1,0-1.4,0.6-1.4,1.7h-3.8c0-1.3,0.5-2.5,1.5-3.3c1-0.9,2.3-1.3,3.8-1.3c1.6,0,2.8,0.4,3.7,1.2c0.9,0.8,1.3,2,1.3,3.6v6.8
				c0,1.3,0.2,2.2,0.5,2.9v0.2H176.9z M174.6,29.9c0.4,0,0.8-0.1,1.1-0.3c0.3-0.2,0.5-0.4,0.7-0.6v-3h-0.9c-0.6,0-1.2,0.2-1.5,0.6
				c-0.4,0.4-0.6,1-0.6,1.7C173.3,29.3,173.8,29.9,174.6,29.9z"/>
			<path class="st1" d="M188.2,29.7c1.1,0,1.7-0.7,1.7-2.2h3.6c0,1.6-0.5,2.9-1.5,3.8c-1,1-2.2,1.5-3.7,1.5c-1.9,0-3.3-0.6-4.3-1.7
				s-1.5-2.9-1.5-5.2v-1.2c0-2.3,0.5-4,1.5-5.2c1-1.2,2.4-1.8,4.3-1.8c1.6,0,2.9,0.5,3.8,1.5c0.9,1,1.4,2.4,1.4,4.2h-3.6
				c0-0.8-0.1-1.4-0.4-1.9c-0.3-0.4-0.7-0.7-1.3-0.7c-0.7,0-1.1,0.2-1.4,0.7s-0.4,1.4-0.5,2.8v1.5c0,1.2,0.1,2,0.2,2.5
				c0.1,0.5,0.3,0.8,0.6,1C187.3,29.6,187.7,29.7,188.2,29.7z"/>
			<path class="st1" d="M206.5,32.6h-3.8V27h-3.3v5.6h-3.8V18h3.8v5.8h3.3V18h3.8V32.6z"/>
			<path class="st1" d="M208.9,24.8c0-2.2,0.5-3.9,1.6-5.2c1-1.3,2.5-1.9,4.3-1.9c1.9,0,3.3,0.6,4.3,1.9c1,1.3,1.6,3,1.6,5.2v0.9
				c0,2.2-0.5,3.9-1.5,5.2c-1,1.2-2.5,1.9-4.3,1.9c-1.9,0-3.3-0.6-4.4-1.9c-1-1.3-1.6-3-1.6-5.2V24.8z M212.7,25.8
				c0,2.6,0.7,3.9,2.1,3.9c1.3,0,2-1.1,2.1-3.3l0-1.6c0-1.3-0.2-2.3-0.6-3c-0.4-0.6-0.9-1-1.6-1c-0.6,0-1.2,0.3-1.5,1
				c-0.4,0.6-0.5,1.6-0.5,3V25.8z"/>
			<path class="st1" d="M228.3,29.7c1.1,0,1.7-0.7,1.7-2.2h3.6c0,1.6-0.5,2.9-1.5,3.8c-1,1-2.2,1.5-3.7,1.5c-1.9,0-3.3-0.6-4.3-1.7
				s-1.5-2.9-1.5-5.2v-1.2c0-2.3,0.5-4,1.5-5.2c1-1.2,2.4-1.8,4.3-1.8c1.6,0,2.9,0.5,3.8,1.5c0.9,1,1.4,2.4,1.4,4.2H230
				c0-0.8-0.1-1.4-0.4-1.9c-0.3-0.4-0.7-0.7-1.3-0.7c-0.7,0-1.1,0.2-1.4,0.7s-0.4,1.4-0.5,2.8v1.5c0,1.2,0.1,2,0.2,2.5
				c0.1,0.5,0.3,0.8,0.6,1C227.4,29.6,227.8,29.7,228.3,29.7z"/>
			<path class="st1" d="M246.2,21.2h-3.7v11.4h-3.8V21.2h-3.7V18h11.3V21.2z"/>
			<path class="st1" d="M252.3,22.3h2c1.7,0,3.1,0.5,4,1.4s1.5,2.2,1.5,3.8c0,1.5-0.5,2.8-1.5,3.7c-1,0.9-2.3,1.4-4,1.4h-5.7V18h3.8
				V22.3z M252.3,25.4v4h2c0.5,0,0.9-0.2,1.2-0.5c0.3-0.4,0.4-0.8,0.4-1.5c0-1.4-0.6-2.1-1.8-2.1H252.3z"/>
		</g>
		<g>
			<path class="st2" d="M171.3,13.3h6.6v1h-7.7V0.7h1.1V13.3z"/>
			<path class="st2" d="M179.7,1.3c0-0.2,0.1-0.4,0.2-0.5c0.1-0.1,0.3-0.2,0.6-0.2c0.2,0,0.4,0.1,0.6,0.2s0.2,0.3,0.2,0.5
				s-0.1,0.4-0.2,0.5c-0.1,0.1-0.3,0.2-0.6,0.2c-0.2,0-0.4-0.1-0.6-0.2C179.8,1.7,179.7,1.5,179.7,1.3z M181,14.3h-1.1v-10h1.1V14.3
				z"/>
			<path class="st2" d="M183.6,9.1c0-1.6,0.3-2.8,1-3.7c0.7-0.9,1.6-1.4,2.8-1.4c1.3,0,2.4,0.5,3.1,1.6V0h1.1v14.3h-1l0-1.3
				c-0.7,1-1.7,1.5-3.1,1.5c-1.1,0-2.1-0.5-2.8-1.4c-0.7-0.9-1.1-2.2-1.1-3.8V9.1z M184.7,9.3c0,1.3,0.3,2.3,0.8,3
				c0.5,0.7,1.2,1.1,2.1,1.1c1.4,0,2.3-0.6,2.9-1.8V6.9c-0.6-1.3-1.5-2-2.9-2c-0.9,0-1.6,0.4-2.2,1.1S184.7,7.9,184.7,9.3z"/>
			<path class="st2" d="M198.3,14.4c-0.8,0-1.6-0.2-2.3-0.6c-0.7-0.4-1.2-1-1.6-1.8c-0.4-0.8-0.6-1.6-0.6-2.5V9.1
				c0-1,0.2-1.8,0.6-2.6c0.4-0.8,0.9-1.4,1.5-1.8c0.7-0.4,1.4-0.7,2.1-0.7c1.2,0,2.2,0.4,2.9,1.2c0.7,0.8,1.1,2,1.1,3.4v0.6H195v0.2
				c0,1.1,0.3,2.1,1,2.8c0.6,0.8,1.5,1.1,2.4,1.1c0.6,0,1.1-0.1,1.6-0.3c0.4-0.2,0.9-0.6,1.2-1l0.7,0.5
				C201,13.8,199.9,14.4,198.3,14.4z M198.1,5c-0.8,0-1.5,0.3-2.1,0.9c-0.6,0.6-0.9,1.4-1,2.5h6V8.2c0-1-0.3-1.8-0.8-2.4
				C199.6,5.3,199,5,198.1,5z"/>
			<path class="st2" d="M208.8,5.2c-0.2,0-0.5-0.1-0.7-0.1c-0.7,0-1.3,0.2-1.7,0.6c-0.5,0.4-0.8,0.9-1,1.7v6.9h-1.1v-10h1.1l0,1.6
				c0.6-1.2,1.5-1.8,2.8-1.8c0.3,0,0.5,0,0.7,0.1L208.8,5.2z"/>
			<path class="st2" d="M225,12.6c-0.4,0.6-1,1-1.8,1.3c-0.8,0.3-1.8,0.5-2.8,0.5c-1,0-2-0.3-2.8-0.8c-0.8-0.5-1.4-1.2-1.9-2.2
				c-0.4-0.9-0.7-2-0.7-3.2V6.6c0-1.9,0.5-3.4,1.4-4.4c0.9-1.1,2.2-1.6,3.8-1.6c1.4,0,2.5,0.4,3.3,1.1c0.8,0.7,1.3,1.7,1.5,2.9h-1.1
				c-0.2-1-0.6-1.7-1.2-2.3c-0.6-0.5-1.5-0.8-2.5-0.8c-1.2,0-2.2,0.4-3,1.3c-0.7,0.9-1.1,2.2-1.1,3.8v1.6c0,1,0.2,1.9,0.5,2.7
				c0.3,0.8,0.8,1.4,1.5,1.8c0.6,0.4,1.4,0.7,2.2,0.7c1,0,1.8-0.2,2.5-0.5c0.5-0.2,0.8-0.4,1-0.7V8.8h-3.6v-1h4.7V12.6z"/>
			<path class="st2" d="M232.5,5.2c-0.2,0-0.5-0.1-0.7-0.1c-0.7,0-1.3,0.2-1.7,0.6s-0.8,0.9-1,1.7v6.9h-1.1v-10h1.1l0,1.6
				c0.6-1.2,1.5-1.8,2.8-1.8c0.3,0,0.5,0,0.7,0.1L232.5,5.2z"/>
			<path class="st2" d="M233.5,9.1c0-1,0.2-1.8,0.6-2.6c0.4-0.8,0.9-1.4,1.6-1.8c0.7-0.4,1.4-0.6,2.3-0.6c1.3,0,2.4,0.5,3.2,1.4
				c0.8,0.9,1.2,2.2,1.2,3.7v0.2c0,1-0.2,1.8-0.6,2.6c-0.4,0.8-0.9,1.4-1.6,1.8c-0.7,0.4-1.4,0.6-2.3,0.6c-1.3,0-2.4-0.5-3.2-1.4
				c-0.8-0.9-1.2-2.2-1.2-3.7V9.1z M234.6,9.4c0,1.2,0.3,2.2,0.9,3c0.6,0.8,1.4,1.2,2.4,1.2c1,0,1.8-0.4,2.4-1.2
				c0.6-0.8,0.9-1.8,0.9-3V9.1c0-0.8-0.1-1.5-0.4-2.1c-0.3-0.6-0.7-1.1-1.2-1.5c-0.5-0.3-1.1-0.5-1.7-0.5c-1,0-1.8,0.4-2.4,1.2
				c-0.6,0.8-0.9,1.8-0.9,3V9.4z"/>
			<path class="st2" d="M251,13c-0.7,1-1.7,1.5-3.2,1.5c-1.1,0-1.9-0.3-2.4-0.9c-0.6-0.6-0.8-1.5-0.8-2.8V4.2h1.1v6.4
				c0,1.9,0.8,2.9,2.3,2.9c1.6,0,2.6-0.7,3-2V4.2h1.1v10H251L251,13z"/>
			<path class="st2" d="M262.9,9.3c0,1.6-0.3,2.8-1,3.7c-0.7,0.9-1.6,1.4-2.8,1.4c-1.4,0-2.4-0.5-3.1-1.4v5.1h-1.1V4.2h1l0.1,1.4
				c0.7-1.1,1.8-1.6,3.1-1.6c1.2,0,2.1,0.5,2.8,1.4c0.7,0.9,1,2.2,1,3.8V9.3z M261.8,9.1c0-1.3-0.3-2.3-0.8-3
				c-0.5-0.7-1.2-1.1-2.2-1.1c-0.7,0-1.3,0.2-1.7,0.5s-0.9,0.8-1.1,1.4v4.8c0.3,0.6,0.6,1,1.1,1.3c0.5,0.3,1.1,0.5,1.7,0.5
				c0.9,0,1.6-0.4,2.2-1.1C261.6,11.6,261.8,10.6,261.8,9.1z"/>
		</g>
	</g>
</g>
</svg>
