<?xml version="1.0" encoding="utf-8"?>
<!-- Generator: Adobe Illustrator 21.1.0, SVG Export Plug-In . SVG Version: 6.00 Build 0)  -->
<svg version="1.1" id="Слой_1" xmlns="http://www.w3.org/2000/svg" xmlns:xlink="http://www.w3.org/1999/xlink" x="0px" y="0px"
	 viewBox="0 0 296.5 38.2" style="enable-background:new 0 0 296.5 38.2;" xml:space="preserve">
<style type="text/css">
	.st0{fill:#9C9B9B;}
	.st1{fill:#0083BD;}
	.st2{fill:#B1B1B1;}
</style>
<g>
	<g>
		<path class="st0" d="M16.5,5.8c-1.1-0.4-1.9-0.8-2.5-1.2L13,4l-1.1,0.6C10.4,5.5,7.1,7,2,7.5L0.1,7.6L0,9.6
			C-0.4,20,2.2,26,5.1,29.4c2,0,3.8-0.3,5.8-0.8c-2.7-1.6-6.5-5.9-6.5-17C8.2,11.1,14.4,8.8,16.5,5.8z"/>
		<path class="st1" d="M25.9,9.6l-0.1-1.9l-1.9-0.2c-2.2-0.2-4-0.6-5.5-1c-1,1.3-2.1,2.6-3.6,3.4c1.8,0.7,4.1,1.4,6.8,1.8
			c0,14.8-5.4,19.2-14.6,19.7c2.4,2,4.8,2.5,5.7,2.7L13,34l0.4-0.1c1-0.2,4.5-1,7.6-4.6C24.6,25,26.3,18.3,25.9,9.6z"/>
	</g>
	<g>
		<g>
			<path class="st0" d="M47.3,32.6h-4V16.3h-5.8v16.3h-4V13h13.7V32.6z"/>
			<path class="st0" d="M61.7,25.8c0,2.3-0.4,4-1.2,5.3s-2,1.8-3.5,1.8c-1.2,0-2.1-0.5-2.9-1.4v6.8h-3.8V18h3.5l0.1,1.3
				c0.7-1.1,1.7-1.6,3-1.6c1.6,0,2.7,0.6,3.5,1.7s1.2,2.9,1.2,5.2V25.8z M57.9,24.8c0-1.4-0.2-2.4-0.5-3c-0.3-0.6-0.8-0.9-1.6-0.9
				c-0.8,0-1.3,0.3-1.7,1v6.8c0.3,0.6,0.9,0.9,1.7,0.9c0.8,0,1.3-0.3,1.6-1s0.4-1.6,0.4-3V24.8z"/>
			<path class="st0" d="M63.5,24.8c0-2.2,0.5-3.9,1.6-5.2c1-1.3,2.5-1.9,4.3-1.9c1.9,0,3.3,0.6,4.3,1.9c1,1.3,1.6,3,1.6,5.2v0.9
				c0,2.2-0.5,3.9-1.5,5.2c-1,1.2-2.5,1.9-4.3,1.9c-1.9,0-3.3-0.6-4.4-1.9c-1-1.3-1.6-3-1.6-5.2V24.8z M67.3,25.8
				c0,2.6,0.7,3.9,2.1,3.9c1.3,0,2-1.1,2.1-3.3l0-1.6c0-1.3-0.2-2.3-0.6-3c-0.4-0.6-0.9-1-1.6-1c-0.6,0-1.1,0.3-1.5,1
				c-0.4,0.6-0.5,1.6-0.5,3V25.8z"/>
			<path class="st0" d="M85.3,28L88,18h4.8v14.6H89v-7.8l-2.4,7.8H84l-2.3-7.5v7.5h-3.8V18h4.7L85.3,28z"/>
			<path class="st0" d="M108.8,16.3H104v16.3h-4V16.3h-4.8V13h13.6V16.3z"/>
			<path class="st0" d="M115.6,32.9c-2,0-3.5-0.6-4.6-1.7s-1.6-2.8-1.6-5V25c0-2.3,0.5-4.1,1.5-5.3c1-1.2,2.4-1.9,4.3-1.9
				c1.8,0,3.2,0.6,4.1,1.8c0.9,1.2,1.4,2.9,1.4,5.2v1.9h-7.6c0.1,1.1,0.3,1.9,0.7,2.4c0.4,0.5,1.1,0.8,2,0.8c1.3,0,2.3-0.4,3.2-1.3
				l1.5,2.3c-0.5,0.6-1.1,1.2-2,1.6C117.6,32.7,116.7,32.9,115.6,32.9z M113.2,23.9h3.8v-0.4c0-0.9-0.2-1.5-0.4-2s-0.7-0.7-1.4-0.7
				s-1.1,0.2-1.4,0.7C113.4,22.1,113.3,22.9,113.2,23.9z"/>
			<path class="st0" d="M127.8,22.4l1.7-4.3h4l-3.3,7.1l3.4,7.4h-4l-1.8-4.6l-1.8,4.6H122l3.4-7.4l-3.3-7.1h4L127.8,22.4z"/>
			<path class="st1" d="M146.6,16.3h-7V20h2.3c2,0,3.6,0.6,4.7,1.7c1.2,1.1,1.8,2.6,1.8,4.5c0,1.9-0.6,3.4-1.7,4.6
				c-1.1,1.2-2.7,1.8-4.6,1.8h-6.5V13h11V16.3z M139.5,23.3v6h2.4c0.8,0,1.4-0.3,1.8-0.9c0.4-0.6,0.7-1.3,0.7-2.2
				c0-0.9-0.2-1.5-0.7-2.1c-0.4-0.5-1-0.8-1.8-0.8H139.5z"/>
			<path class="st1" d="M156.3,32.9c-2,0-3.5-0.6-4.6-1.7s-1.6-2.8-1.6-5V25c0-2.3,0.5-4.1,1.5-5.3c1-1.2,2.4-1.9,4.3-1.9
				c1.8,0,3.2,0.6,4.1,1.8c0.9,1.2,1.4,2.9,1.4,5.2v1.9h-7.6c0.1,1.1,0.3,1.9,0.7,2.4c0.4,0.5,1.1,0.8,2,0.8c1.3,0,2.3-0.4,3.2-1.3
				l1.5,2.3c-0.5,0.6-1.1,1.2-2,1.6C158.3,32.7,157.3,32.9,156.3,32.9z M153.9,23.9h3.8v-0.4c0-0.9-0.2-1.5-0.4-2
				c-0.3-0.5-0.7-0.7-1.4-0.7c-0.7,0-1.1,0.2-1.4,0.7C154.1,22.1,154,22.9,153.9,23.9z"/>
			<path class="st1" d="M169.8,22.3c0-1.1-0.4-1.6-1.2-1.6c-0.4,0-0.8,0.1-1,0.4c-0.3,0.3-0.4,0.6-0.4,1.1h-3.8
				c0-1.3,0.5-2.4,1.4-3.2c0.9-0.8,2.1-1.2,3.6-1.2c1.6,0,2.9,0.4,3.8,1.1s1.4,1.8,1.4,3.1c0,0.6-0.2,1.2-0.5,1.8
				c-0.3,0.5-0.8,1-1.4,1.3c1.4,0.6,2.1,1.7,2.1,3.4c0,1.3-0.5,2.4-1.5,3.2c-1,0.8-2.3,1.2-4,1.2c-1.5,0-2.8-0.4-3.7-1.2
				c-1-0.8-1.4-1.9-1.4-3.3h3.8c0,0.5,0.1,0.9,0.4,1.2s0.7,0.4,1.2,0.4c0.5,0,0.8-0.2,1.1-0.5c0.2-0.3,0.4-0.7,0.4-1.3
				c0-1.1-0.4-1.7-1.3-1.8h-1.9v-2.5h1.8C169.4,23.9,169.8,23.4,169.8,22.3z"/>
			<path class="st1" d="M175.6,24.8c0-2.2,0.5-3.9,1.6-5.2c1-1.3,2.5-1.9,4.3-1.9c1.9,0,3.3,0.6,4.3,1.9c1,1.3,1.6,3,1.6,5.2v0.9
				c0,2.2-0.5,3.9-1.5,5.2c-1,1.2-2.5,1.9-4.3,1.9c-1.9,0-3.3-0.6-4.4-1.9c-1-1.3-1.6-3-1.6-5.2V24.8z M179.5,25.8
				c0,2.6,0.7,3.9,2.1,3.9c1.3,0,2-1.1,2.1-3.3l0-1.6c0-1.3-0.2-2.3-0.6-3c-0.4-0.6-0.9-1-1.6-1c-0.6,0-1.2,0.3-1.5,1
				c-0.4,0.6-0.5,1.6-0.5,3V25.8z"/>
			<path class="st1" d="M200.8,32.6H197V21.2h-3.4v11.4h-3.8V18h11V32.6z"/>
			<path class="st1" d="M210.5,32.6c-0.1-0.2-0.2-0.6-0.3-1.1c-0.7,0.9-1.6,1.4-2.8,1.4c-1.2,0-2.2-0.4-3-1.2
				c-0.8-0.8-1.2-1.9-1.2-3.1c0-1.5,0.5-2.7,1.5-3.5c1-0.8,2.4-1.3,4.2-1.3h1.2v-1.2c0-0.7-0.1-1.1-0.3-1.4c-0.2-0.3-0.6-0.4-1-0.4
				c-1,0-1.4,0.6-1.4,1.7h-3.8c0-1.3,0.5-2.5,1.5-3.3c1-0.9,2.3-1.3,3.8-1.3c1.6,0,2.8,0.4,3.7,1.2c0.9,0.8,1.3,2,1.3,3.6v6.8
				c0,1.3,0.2,2.2,0.5,2.9v0.2H210.5z M208.2,29.9c0.4,0,0.8-0.1,1.1-0.3c0.3-0.2,0.5-0.4,0.7-0.6v-3H209c-0.6,0-1.2,0.2-1.5,0.6
				c-0.4,0.4-0.6,1-0.6,1.7C207,29.3,207.4,29.9,208.2,29.9z"/>
			<path class="st1" d="M221.8,29.7c1.1,0,1.7-0.7,1.7-2.2h3.6c0,1.6-0.5,2.9-1.5,3.8c-1,1-2.2,1.5-3.7,1.5c-1.9,0-3.3-0.6-4.3-1.7
				s-1.5-2.9-1.5-5.2v-1.2c0-2.3,0.5-4,1.5-5.2c1-1.2,2.4-1.8,4.3-1.8c1.6,0,2.9,0.5,3.8,1.5c0.9,1,1.4,2.4,1.4,4.2h-3.6
				c0-0.8-0.1-1.4-0.4-1.9c-0.3-0.4-0.7-0.7-1.3-0.7c-0.7,0-1.1,0.2-1.4,0.7s-0.4,1.4-0.5,2.8v1.5c0,1.2,0.1,2,0.2,2.5
				c0.1,0.5,0.3,0.8,0.6,1C220.9,29.6,221.3,29.7,221.8,29.7z"/>
			<path class="st1" d="M240.2,32.6h-3.8V27H233v5.6h-3.8V18h3.8v5.8h3.3V18h3.8V32.6z"/>
			<path class="st1" d="M242.5,24.8c0-2.2,0.5-3.9,1.6-5.2c1-1.3,2.5-1.9,4.3-1.9c1.9,0,3.3,0.6,4.3,1.9c1,1.3,1.6,3,1.6,5.2v0.9
				c0,2.2-0.5,3.9-1.5,5.2c-1,1.2-2.5,1.9-4.3,1.9c-1.9,0-3.3-0.6-4.4-1.9c-1-1.3-1.6-3-1.6-5.2V24.8z M246.3,25.8
				c0,2.6,0.7,3.9,2.1,3.9c1.3,0,2-1.1,2.1-3.3l0-1.6c0-1.3-0.2-2.3-0.6-3c-0.4-0.6-0.9-1-1.6-1c-0.6,0-1.2,0.3-1.5,1
				c-0.4,0.6-0.5,1.6-0.5,3V25.8z"/>
			<path class="st1" d="M261.9,29.7c1.1,0,1.7-0.7,1.7-2.2h3.6c0,1.6-0.5,2.9-1.5,3.8c-1,1-2.2,1.5-3.7,1.5c-1.9,0-3.3-0.6-4.3-1.7
				s-1.5-2.9-1.5-5.2v-1.2c0-2.3,0.5-4,1.5-5.2c1-1.2,2.4-1.8,4.3-1.8c1.6,0,2.9,0.5,3.8,1.5c0.9,1,1.4,2.4,1.4,4.2h-3.6
				c0-0.8-0.1-1.4-0.4-1.9c-0.3-0.4-0.7-0.7-1.3-0.7c-0.7,0-1.1,0.2-1.4,0.7S260,23,260,24.4v1.5c0,1.2,0.1,2,0.2,2.5
				c0.1,0.5,0.3,0.8,0.6,1C261,29.6,261.4,29.7,261.9,29.7z"/>
			<path class="st1" d="M279.8,21.2h-3.7v11.4h-3.8V21.2h-3.7V18h11.3V21.2z"/>
			<path class="st1" d="M285.9,22.3h2c1.7,0,3.1,0.5,4,1.4s1.5,2.2,1.5,3.8c0,1.5-0.5,2.8-1.5,3.7c-1,0.9-2.3,1.4-4,1.4h-5.7V18h3.8
				V22.3z M285.9,25.4v4h2c0.5,0,0.9-0.2,1.2-0.5c0.3-0.4,0.4-0.8,0.4-1.5c0-1.4-0.6-2.1-1.8-2.1H285.9z"/>
		</g>
		<g>
			<path class="st2" d="M204.9,13.3h6.6v1h-7.7V0.7h1.1V13.3z"/>
			<path class="st2" d="M213.4,1.3c0-0.2,0.1-0.4,0.2-0.5c0.1-0.1,0.3-0.2,0.6-0.2c0.2,0,0.4,0.1,0.6,0.2s0.2,0.3,0.2,0.5
				s-0.1,0.4-0.2,0.5c-0.1,0.1-0.3,0.2-0.6,0.2c-0.2,0-0.4-0.1-0.6-0.2C213.4,1.7,213.4,1.5,213.4,1.3z M214.6,14.3h-1.1v-10h1.1
				V14.3z"/>
			<path class="st2" d="M217.2,9.1c0-1.6,0.3-2.8,1-3.7c0.7-0.9,1.6-1.4,2.8-1.4c1.3,0,2.4,0.5,3.1,1.6V0h1.1v14.3h-1l0-1.3
				c-0.7,1-1.7,1.5-3.1,1.5c-1.1,0-2.1-0.5-2.8-1.4c-0.7-0.9-1.1-2.2-1.1-3.8V9.1z M218.3,9.3c0,1.3,0.3,2.3,0.8,3
				c0.5,0.7,1.2,1.1,2.1,1.1c1.4,0,2.3-0.6,2.9-1.8V6.9c-0.6-1.3-1.5-2-2.9-2c-0.9,0-1.6,0.4-2.2,1.1C218.6,6.8,218.3,7.9,218.3,9.3
				z"/>
			<path class="st2" d="M231.9,14.4c-0.8,0-1.6-0.2-2.3-0.6c-0.7-0.4-1.2-1-1.6-1.8c-0.4-0.8-0.6-1.6-0.6-2.5V9.1
				c0-1,0.2-1.8,0.6-2.6c0.4-0.8,0.9-1.4,1.5-1.8c0.7-0.4,1.4-0.7,2.1-0.7c1.2,0,2.2,0.4,2.9,1.2c0.7,0.8,1.1,2,1.1,3.4v0.6h-7.1
				v0.2c0,1.1,0.3,2.1,1,2.8c0.6,0.8,1.5,1.1,2.4,1.1c0.6,0,1.1-0.1,1.6-0.3c0.4-0.2,0.9-0.6,1.2-1l0.7,0.5
				C234.6,13.8,233.5,14.4,231.9,14.4z M231.7,5c-0.8,0-1.5,0.3-2.1,0.9c-0.6,0.6-0.9,1.4-1,2.5h6V8.2c0-1-0.3-1.8-0.8-2.4
				C233.2,5.3,232.6,5,231.7,5z"/>
			<path class="st2" d="M242.4,5.2c-0.2,0-0.5-0.1-0.7-0.1c-0.7,0-1.3,0.2-1.7,0.6s-0.8,0.9-1,1.7v6.9h-1.1v-10h1.1l0,1.6
				c0.6-1.2,1.5-1.8,2.8-1.8c0.3,0,0.5,0,0.7,0.1L242.4,5.2z"/>
			<path class="st2" d="M258.6,12.6c-0.4,0.6-1,1-1.8,1.3c-0.8,0.3-1.8,0.5-2.8,0.5c-1,0-2-0.3-2.8-0.8c-0.8-0.5-1.4-1.2-1.9-2.2
				c-0.4-0.9-0.7-2-0.7-3.2V6.6c0-1.9,0.5-3.4,1.4-4.4c0.9-1.1,2.2-1.6,3.8-1.6c1.4,0,2.5,0.4,3.3,1.1c0.8,0.7,1.3,1.7,1.5,2.9h-1.1
				c-0.2-1-0.6-1.7-1.2-2.3c-0.6-0.5-1.5-0.8-2.5-0.8c-1.2,0-2.2,0.4-3,1.3c-0.7,0.9-1.1,2.2-1.1,3.8v1.6c0,1,0.2,1.9,0.5,2.7
				c0.3,0.8,0.8,1.4,1.5,1.8c0.6,0.4,1.4,0.7,2.2,0.7c1,0,1.8-0.2,2.5-0.5c0.5-0.2,0.8-0.4,1-0.7V8.8h-3.6v-1h4.7V12.6z"/>
			<path class="st2" d="M266.1,5.2c-0.2,0-0.5-0.1-0.7-0.1c-0.7,0-1.3,0.2-1.7,0.6s-0.8,0.9-1,1.7v6.9h-1.1v-10h1.1l0,1.6
				c0.6-1.2,1.5-1.8,2.8-1.8c0.3,0,0.5,0,0.7,0.1L266.1,5.2z"/>
			<path class="st2" d="M267.1,9.1c0-1,0.2-1.8,0.6-2.6c0.4-0.8,0.9-1.4,1.6-1.8c0.7-0.4,1.4-0.6,2.3-0.6c1.3,0,2.4,0.5,3.2,1.4
				c0.8,0.9,1.2,2.2,1.2,3.7v0.2c0,1-0.2,1.8-0.6,2.6c-0.4,0.8-0.9,1.4-1.6,1.8c-0.7,0.4-1.4,0.6-2.3,0.6c-1.3,0-2.4-0.5-3.2-1.4
				s-1.2-2.2-1.2-3.7V9.1z M268.2,9.4c0,1.2,0.3,2.2,0.9,3c0.6,0.8,1.4,1.2,2.4,1.2c1,0,1.8-0.4,2.4-1.2c0.6-0.8,0.9-1.8,0.9-3V9.1
				c0-0.8-0.1-1.5-0.4-2.1c-0.3-0.6-0.7-1.1-1.2-1.5c-0.5-0.3-1.1-0.5-1.7-0.5c-1,0-1.8,0.4-2.4,1.2c-0.6,0.8-0.9,1.8-0.9,3V9.4z"/>
			<path class="st2" d="M284.6,13c-0.7,1-1.7,1.5-3.2,1.5c-1.1,0-1.9-0.3-2.4-0.9c-0.6-0.6-0.8-1.5-0.8-2.8V4.2h1.1v6.4
				c0,1.9,0.8,2.9,2.3,2.9c1.6,0,2.6-0.7,3-2V4.2h1.1v10h-1.1L284.6,13z"/>
			<path class="st2" d="M296.5,9.3c0,1.6-0.3,2.8-1,3.7c-0.7,0.9-1.6,1.4-2.8,1.4c-1.4,0-2.4-0.5-3.1-1.4v5.1h-1.1V4.2h1l0.1,1.4
				c0.7-1.1,1.8-1.6,3.1-1.6c1.2,0,2.1,0.5,2.8,1.4c0.7,0.9,1,2.2,1,3.8V9.3z M295.4,9.1c0-1.3-0.3-2.3-0.8-3
				c-0.5-0.7-1.2-1.1-2.2-1.1c-0.7,0-1.3,0.2-1.7,0.5s-0.9,0.8-1.1,1.4v4.8c0.3,0.6,0.6,1,1.1,1.3c0.5,0.3,1.1,0.5,1.7,0.5
				c0.9,0,1.6-0.4,2.2-1.1C295.2,11.6,295.4,10.6,295.4,9.1z"/>
		</g>
	</g>
</g>
</svg>
