<?xml version="1.0" standalone="no"?>
<!DOCTYPE svg PUBLIC "-//W3C//DTD SVG 20010904//EN"
 "http://www.w3.org/TR/2001/REC-SVG-20010904/DTD/svg10.dtd">
<svg version="1.0" xmlns="http://www.w3.org/2000/svg"
 width="700.000000pt" height="700.000000pt" viewBox="0 0 700.000000 700.000000"
 preserveAspectRatio="xMidYMid meet">
<metadata>
Created by potrace 1.11, written by Peter Selinger 2001-2013
</metadata>
<g transform="translate(0.000000,700.000000) scale(0.100000,-0.100000)"
fill="#000000" stroke="none">
<path d="M3484 6600 c-32 -31 -410 -226 -594 -308 -130 -57 -393 -147 -615
-211 -76 -21 -351 -87 -400 -95 -16 -2 -53 -9 -82 -15 -29 -6 -74 -13 -100
-17 -26 -3 -57 -8 -68 -10 -11 -2 -40 -7 -65 -9 -25 -3 -52 -8 -60 -10 -8 -2
-46 -7 -85 -11 -38 -3 -77 -8 -86 -9 -9 -2 -52 -6 -95 -10 -43 -4 -95 -9 -114
-10 -19 -2 -71 -7 -115 -11 -44 -3 -91 -8 -105 -9 -14 -2 -34 -4 -46 -4 -15
-1 -21 -8 -21 -28 0 -16 -4 -125 -9 -243 -15 -393 -10 -1051 10 -1290 2 -19 7
-75 10 -125 4 -49 9 -101 11 -115 2 -14 6 -54 10 -90 7 -66 12 -106 20 -150 2
-14 7 -50 10 -80 8 -71 63 -388 69 -398 2 -4 7 -24 10 -44 18 -112 87 -380
144 -558 61 -189 74 -224 83 -235 5 -5 9 -15 9 -23 0 -18 99 -250 163 -382 79
-162 203 -371 314 -529 45 -63 163 -214 175 -222 12 -8 311 3 418 16 19 2 62
6 95 10 33 3 98 12 145 20 47 8 103 17 125 21 47 7 239 47 345 72 l75 18 -50
33 c-121 82 -203 150 -313 259 -128 127 -138 138 -229 257 -286 377 -516 935
-628 1526 -3 13 -7 35 -9 49 -3 14 -7 41 -10 60 -3 19 -12 73 -20 120 -14 81
-19 124 -31 235 -3 28 -8 66 -10 85 -11 86 -14 121 -21 215 -3 55 -8 123 -9
150 -2 28 -6 161 -10 296 l-6 247 48 7 c294 43 737 167 1098 308 599 233 1076
531 1311 818 30 36 54 69 54 73 0 3 -8 6 -18 6 -10 0 -22 4 -28 8 -5 5 -36 19
-69 32 -85 33 -420 200 -460 230 -36 27 -164 87 -171 80z"/>
<path d="M4539 6001 c-118 -150 -239 -279 -348 -371 -30 -25 -59 -50 -66 -56
-22 -22 -206 -143 -226 -149 -27 -9 -24 -21 9 -33 71 -27 260 -95 282 -102
161 -52 406 -122 473 -136 10 -2 26 -5 35 -8 9 -3 28 -7 42 -10 14 -3 81 -17
150 -32 69 -14 184 -36 255 -48 l130 -21 -1 -220 c0 -197 -10 -480 -19 -575
-1 -19 -6 -71 -9 -115 -7 -81 -14 -149 -21 -195 -2 -14 -7 -52 -10 -85 -4 -33
-9 -73 -11 -90 -3 -16 -7 -46 -9 -65 -3 -19 -7 -46 -10 -60 -3 -14 -7 -43 -11
-65 -3 -22 -7 -47 -9 -55 -2 -8 -7 -31 -10 -50 -3 -19 -10 -53 -15 -75 -5 -22
-12 -55 -15 -73 -14 -80 -87 -348 -131 -477 -158 -471 -372 -828 -674 -1123
-90 -88 -205 -182 -280 -230 -30 -20 -57 -38 -60 -42 -8 -11 -137 -84 -235
-133 -140 -71 -337 -147 -480 -187 -22 -6 -65 -18 -95 -26 -30 -9 -66 -18 -80
-20 -14 -3 -63 -14 -110 -24 -81 -18 -247 -45 -348 -56 -26 -3 -58 -7 -72 -9
-14 -2 -61 -7 -105 -10 -113 -8 -189 -16 -192 -19 -5 -4 202 -154 282 -203
269 -166 553 -282 825 -336 119 -24 129 -25 204 -11 201 35 404 103 611 204
208 102 352 193 530 334 91 72 326 299 400 386 100 116 253 328 344 475 145
234 314 608 415 920 66 205 135 468 162 615 2 14 11 59 19 100 31 158 67 399
80 540 4 36 9 79 11 95 2 17 6 66 10 110 3 43 7 95 9 115 20 187 26 948 11
1310 -5 107 -8 205 -8 217 2 36 18 33 -303 58 -44 3 -132 12 -195 20 -63 8
-140 17 -170 20 -72 8 -154 21 -250 40 -13 3 -42 7 -63 10 -67 10 -307 64
-417 94 -58 16 -115 31 -127 34 -17 4 -36 -14 -104 -102z"/>
</g>
</svg>
