<svg xmlns="http://www.w3.org/2000/svg" viewBox="0 0 240 247.22"><defs><style>.cls-1{fill:gray;}.cls-2{fill:#fff;}.cls-3{fill:#b3b3b3;}.cls-4{fill:#999;}.cls-5{fill:#0083bd;}</style></defs><title>company_eco-book</title><g id="Слой_2" data-name="Слой 2"><g id="Слой_1-2" data-name="Слой 1"><circle class="cls-1" cx="120" cy="127.22" r="120" transform="translate(-54.81 122.12) rotate(-45)"/><path class="cls-2" d="M120,245.22a117.23,117.23,0,0,1-83.44-34.56c-1.51-1.51-3-3.08-4.52-4.79V2H208V205.88c-1.53,1.71-3,3.28-4.52,4.79A117.23,117.23,0,0,1,120,245.22Z"/><path class="cls-3" d="M206,4V205.11c-1.32,1.46-2.62,2.82-3.93,4.14a116,116,0,0,1-164,0c-1.32-1.32-2.61-2.68-3.93-4.14V4H206m4-4H30V206.64q2.46,2.78,5.1,5.44a120,120,0,0,0,169.71,0q2.66-2.66,5.1-5.44V0Z"/><rect class="cls-4" x="116.39" y="204.36" width="44.21" height="4.96"/><rect class="cls-4" x="88.42" y="204.36" width="25.71" height="4.96"/><path class="cls-5" d="M32.84,209.7q1.13,1.2,2.31,2.38a121.15,121.15,0,0,0,11.52,10.15h.61V207H32.84Z"/><rect class="cls-4" x="32.84" y="191.62" width="14.44" height="15.27"/><rect class="cls-3" x="32.84" y="2.71" width="14.44" height="188.84"/><rect class="cls-4" x="91.68" y="119.29" width="115.39" height="18.4"/><rect class="cls-3" x="138.26" y="95.47" width="68.81" height="18.4"/><rect class="cls-5" x="138.26" y="143.11" width="68.81" height="18.4"/></g></g></svg>