<svg xmlns="http://www.w3.org/2000/svg" viewBox="0 0 250 257.53"><defs><style>.cls-1{fill:gray;}.cls-2{fill:#fff;}.cls-3{fill:#b3b3b3;}.cls-4{fill:#0083bd;}.cls-5{fill:#999;}</style></defs><title>company_licensya</title><g id="Слой_2" data-name="Слой 2"><g id="Слой_1-2" data-name="Слой 1"><circle class="cls-1" cx="125" cy="132.53" r="125" transform="translate(-57.1 127.2) rotate(-45)"/><path class="cls-2" d="M125,255.53a122.2,122.2,0,0,1-87-36c-1.58-1.58-3.13-3.22-4.73-5V2H216.71V214.49c-1.6,1.79-3.15,3.44-4.73,5A122.2,122.2,0,0,1,125,255.53Z"/><path class="cls-3" d="M214.7,4V213.72c-1.39,1.54-2.76,3-4.14,4.36a121,121,0,0,1-171.12,0c-1.39-1.39-2.75-2.82-4.15-4.36V4H214.7m4-4H31.3V215.25q2.56,2.89,5.32,5.67a125,125,0,0,0,176.78,0q2.77-2.77,5.32-5.67V0Z"/><rect class="cls-4" x="83.92" y="66.42" width="81.96" height="13.47"/><rect class="cls-4" x="117.38" y="16.33" width="15.04" height="15.91"/><rect class="cls-5" x="59.11" y="43.05" width="96.8" height="5.17"/><rect class="cls-5" x="158.27" y="43.05" width="32.42" height="5.17"/><rect class="cls-5" x="93.89" y="98.97" width="96.8" height="5.17"/><rect class="cls-5" x="59.11" y="98.97" width="32.42" height="5.17"/><rect class="cls-3" x="59.11" y="128.1" width="96.8" height="5.17"/><rect class="cls-3" x="158.27" y="128.1" width="32.42" height="5.17"/><rect class="cls-5" x="59.11" y="108.84" width="88.35" height="5.17"/><rect class="cls-5" x="149.81" y="108.84" width="32.42" height="5.17"/><rect class="cls-5" x="93.89" y="167.11" width="96.8" height="5.17"/><rect class="cls-5" x="59.11" y="167.11" width="32.42" height="5.17"/><rect class="cls-5" x="59.11" y="176.97" width="88.35" height="5.17"/><rect class="cls-5" x="149.81" y="176.97" width="32.42" height="5.17"/><rect class="cls-3" x="93.89" y="137.97" width="88.35" height="5.17"/><rect class="cls-3" x="59.11" y="137.97" width="32.42" height="5.17"/><rect class="cls-3" x="93.89" y="196.24" width="88.35" height="5.17"/><rect class="cls-3" x="59.11" y="196.24" width="32.42" height="5.17"/><rect class="cls-3" x="59.11" y="147.84" width="51.22" height="5.17"/><rect class="cls-3" x="147.46" y="147.84" width="43.23" height="5.17"/><rect class="cls-3" x="112.68" y="147.84" width="32.42" height="5.17"/></g></g></svg>